<?xml version="1.0" encoding="utf-8"?>
<!-- Generator: Adobe Illustrator 19.0.0, SVG Export Plug-In . SVG Version: 6.00 Build 0)  -->
<svg version="1.1" id="Layer_1" xmlns="http://www.w3.org/2000/svg" xmlns:xlink="http://www.w3.org/1999/xlink" x="0px" y="0px"
	 viewBox="-279 81 400 400" style="enable-background:new -279 81 400 400;" xml:space="preserve">
<style type="text/css">
	.st0{fill:#FF7E65;}
</style>
<title>99d logomark in square</title>
<path class="st0" d="M-127.1,291.3c4.9,8.8,12.1,16.2,20.9,21.2c7.6,4.4,15.8,6.8,24,7.4l-24.4,42.5h36.5l29.1-50.7
	c0.2,7.3,1.5,14.1,3.9,20.3c2.6,6.9,6.3,12.9,11,17.9c4.7,5,10.3,8.9,16.8,11.8c6.5,2.8,13.6,4.2,21.3,4.2c7.3,0,13.5-1.2,18.4-3.5
	c5-2.3,9.6-6.1,13.8-11.3v11.2H74V210.5H42.4v54.7c-4.4-4.2-9-7.4-13.9-9.4s-10.7-3.1-17.3-3.1c-7.4,0-14.4,1.4-20.8,4.2
	c-4.7,2.1-8.9,4.7-12.6,7.9c0.4-19.9-9.7-39.4-28-50c-26.8-15.6-61.1-6.3-76.6,20.6l-0.3,0.6c-4.9-8.8-12.1-16.2-20.9-21.2
	c-26.8-15.6-61.1-6.3-76.6,20.6c-15.5,27-6.3,61.5,20.5,77c7.6,4.4,15.8,6.8,24,7.4l-24.4,42.5h36.5l40.5-70.5L-127.1,291.3
	L-127.1,291.3z M-279,81h400v400h-400V81z M36.5,328.6c-5.1,5.1-11.5,7.6-19.4,7.6c-3.8,0-7.3-0.7-10.6-2c-3.3-1.3-6.1-3.2-8.4-5.6
	c-2.3-2.4-4.1-5.3-5.5-8.6c-1.3-3.3-2-7-2-10.9c0-3.8,0.7-7.4,2-10.7c1.3-3.3,3.2-6.1,5.6-8.5c2.4-2.3,5.2-4.2,8.5-5.5
	c3.3-1.3,6.9-2,10.9-2c3.8,0,7.3,0.7,10.5,2c3.2,1.3,6,3.2,8.4,5.6c2.4,2.4,4.3,5.2,5.6,8.4c1.3,3.2,2,6.7,2,10.5
	C44.1,316.9,41.6,323.5,36.5,328.6L36.5,328.6z M-100.4,250.8c7.1-12.3,22.7-16.5,35-9.4c12.2,7.1,16.4,22.9,9.4,35.2
	c-7.1,12.3-22.7,16.6-35,9.4C-103.2,278.9-107.4,263.1-100.4,250.8L-100.4,250.8z M-198.2,250.8c7.1-12.3,22.7-16.5,35-9.4
	c12.2,7.1,16.4,22.9,9.4,35.2c-7.1,12.3-22.7,16.6-35,9.4S-205.2,263.1-198.2,250.8L-198.2,250.8z"/>
</svg>
