<?xml version="1.0" encoding="utf-8"?>
<!-- Generator: Adobe Illustrator 19.0.0, SVG Export Plug-In . SVG Version: 6.00 Build 0)  -->
<svg version="1.1" id="Layer_1" xmlns="http://www.w3.org/2000/svg" xmlns:xlink="http://www.w3.org/1999/xlink" x="10px" y="10px"
	 viewBox="0 0 960 560" style="enable-background:new 0 0 960 560;" xml:space="preserve">
<path d="M478.6,506.5c-12.5,0-25,0-37.4,0c-11.7,0-23.4,0.4-35,0.2c-37-0.4-66.1-16-87.1-46.4c-3.7-5.4-53.7-97.3-75.2-137.6
	c-8.2-15.4-12.6-31.9-12.3-49.5c0.2-9.4,2.4-18.3,6.7-26.7c0,0,56.2-100.9,79.7-141.1c10-17.2,23.6-30.8,41.1-40.2
	c14.1-7.5,29.1-11.5,45.1-11.4c20.5,0.1,135.8-0.5,148.5-0.3c39.1,0.7,69.2,17.7,89.4,51.1c20.3,33.6,67,113.9,70.6,120.1
	c7.5,12.8,12.5,26.6,14.5,41.4c3.2,23.8-1.3,46.2-13.4,66.9c-23.5,40.2-47.1,80.3-70.5,120.5c-9.3,16-21.6,29.1-37.6,38.6
	c-13,7.7-27,12.4-42.1,13.4c-7,0.5-14.1,0.5-21.1,0.5c-21.4,0.2-42.7,0.3-64.1,0.4C478.6,506.4,478.6,506.4,478.6,506.5z
	 M682.9,280.2c-0.5-4-0.7-8-1.5-11.9c-4.4-20.1-15.4-35.6-33.5-45.8c-6.9-3.9-14.3-6.1-22.2-6.2c-21.8-0.2-43.5-0.3-65.3-0.5
	c-9.3-0.1-18.6,0-27.8-0.5c-11.2-0.6-21.4-4.4-30.4-11.2c-7-5.2-12.5-11.9-17.1-19.3c-12.5-19.8-25-39.7-37.5-59.5
	c-3.2-5.1-7.1-9.6-11.7-13.6c-9.2-7.9-19.7-12.4-31.9-12.5c-9.6-0.1-18.4,2.8-26.5,7.9c-8.6,5.4-15.1,12.7-20.2,21.4
	c-6.3,10.8-12.7,21.5-19,32.2c-17.3,29.6-34.6,59.3-51.7,89c-7.2,12.5-9.9,25.9-6.5,40.2c5,21.2,22.8,37.4,45.1,38.3
	c6.3,0.3,12.6,0.2,19,0.3c16.6,0,33.3-0.1,49.9,0c6.8,0,13.6,0,20.4,0.6c10.7,1,20.5,4.7,29.2,11.1c7.1,5.2,12.7,11.9,17.4,19.3
	c15.3,24.4,30.6,48.8,46,73.1c2.3,3.7,5.1,7.2,8.1,10.3c15.6,16.4,39.4,21.5,60,13.2c12.2-5,21.4-13.5,28-24.8
	c23.8-40.6,47.6-81.3,71.4-121.9C680,300.5,682.7,290.7,682.9,280.2z M342.5,374.1c-9-0.1-15.2,9.7-10.3,17.9
	c7.8,12.9,15.2,26.1,22.9,39.1c1.4,2.4,3,4.7,4.7,7c6.2,8.2,13.8,14.6,23.4,18.6c7.3,3,14.9,4.3,22.7,4.3c15,0,30.1,0,45.1,0
	c0.6,0,1.1,0,1.7,0c4.3-0.2,7.6-2.7,9-6.8c1.2-3.5,0.5-6.7-1.4-9.8c-11.1-17.6-22.2-35.3-33.3-53c-7.1-11.2-17.4-16.9-30.6-17
	C387.6,374.3,351.8,374.3,342.5,374.1z M610.3,170.5c5.1-0.1,8.8-3.2,9.9-7.9c0.6-2.7,0.1-5.2-1.3-7.6c-7-12.5-14-25-22.5-36.5
	c-3.4-4.6-7.5-8.5-12.4-11.5c-7.9-4.9-16.7-7.2-25.9-7.7c-4.7-0.2-41-0.2-54.5-0.3c-1,0-2.1,0-3.1,0.1c-3.6,0.2-6.5,2.4-7.7,5.9
	c-1,3-0.4,5.6,1.3,8.2c8.6,13.6,17.1,27.2,25.8,40.8c6.8,10.7,16.7,16,29.3,16.1C558.8,170.2,606.3,170.6,610.3,170.5z"/>
<path d="M637.8,275.6c-2-9.3-9.5-15.3-19.1-15.4l-15.6-0.1c-18-0.1-36-0.2-54-0.3h-2.2c-8.5,0-16.5-0.1-24.1-1.2
	c-16.2-2.4-30.4-7.8-43.3-16.5c-12.3-8.4-22.5-19-30.9-32.5c-6.5-10.3-13.1-20.9-19.5-31.1c-3.4-5.5-6.9-11-10.3-16.5
	c-0.5-0.7-0.9-1.4-1.3-2c-0.2-0.2-0.3-0.5-0.5-0.8c-3-4.2-7.9-6.9-13.3-6.9c-0.2,0-0.3,0-0.5,0c-5.5,0.2-10.5,3.1-13.3,7.9
	c-19.2,32.5-39,66-58.7,100.4c-2.8,5-2.8,11,0,16c2.9,4.9,8.1,8,13.8,8h1.3h0.9h1c2.4,0,4.8,0,7.2,0c4.9,0,9.9-0.1,14.9-0.1h0.7
	c6.2,0,12.3,0,18.5,0c5,0,9.9,0,14.9,0c6.9,0,13,0.4,18.9,1.3c14.5,2.2,28,7.1,40,14.5c14,8.7,25.6,20.6,35.4,36.3
	c9.7,15.5,19.6,31.3,29.2,46.5c3.9,6.1,7.7,12.2,11.6,18.4c0.5,0.8,1,1.5,1.4,2.1c0.2,0.2,0.4,0.5,0.6,0.8c3,4.4,7.9,7,13.2,7
	c0.2,0,0.3,0,0.5,0c5.5-0.2,10.4-3.1,13.3-7.8l0.6-1.1c0.5-0.8,0.9-1.5,1.3-2.1l19.4-33.2c13.6-23.2,27.2-46.5,40.7-69.7
	c0.7-1.2,1.4-2.4,2.1-3.6c1-1.6,2-3.3,3-5C638,284.7,638.8,280,637.8,275.6z"/>
</svg>
