<?xml version="1.0" encoding="utf-8"?>
<!-- Generator: Adobe Illustrator 19.0.0, SVG Export Plug-In . SVG Version: 6.00 Build 0)  -->
<svg version="1.1" id="Layer_1" xmlns="http://www.w3.org/2000/svg" xmlns:xlink="http://www.w3.org/1999/xlink" x="0px" y="0px"
	 viewBox="0 0 150 150" style="enable-background:new 0 0 150 150;" xml:space="preserve">
<style type="text/css">
	.st0{fill:#FFFFFF;}
	.st1{opacity:0.3;}
</style>
<g id="XMLID_8_">
	<path id="XMLID_14_" class="st0" d="M-0.5-0.5v151h151v-151H-0.5z M130.4,86.1c-5.6,9.5-11.1,19-16.7,28.5
		c-2.2,3.8-5.2,6.9-8.9,9.1c-3,1.8-6.4,2.9-10,3.2c-1.6,0.2-3.4,0.2-5,0.2c-5.1,0.1-10.1,0.1-15.1,0.1c0.1,0,0.1,0,0.1,0.1
		c-2.9,0-5.9,0-8.8,0c-2.8,0-5.6,0.1-8.3,0.1c-8.8-0.1-15.6-3.8-20.6-11c-0.9-1.3-12.7-23-17.8-32.6c-2-3.6-3-7.5-2.9-11.7
		c0.1-2.2,0.6-4.3,1.6-6.3c0,0,13.3-23.9,18.8-33.4c2.4-4.1,5.6-7.3,9.7-9.5c3.4-1.8,6.9-2.7,10.6-2.7c4.8,0,32.2-0.2,35.1-0.1
		c9.3,0.2,16.4,4.2,21.1,12.1C118.1,40,129.2,59,130,60.5c1.8,3,2.9,6.3,3.4,9.8C134.4,75.9,133.3,81.1,130.4,86.1z"/>
	<path id="XMLID_11_" class="st0" d="M114.9,59.9c-1.6-0.9-3.4-1.5-5.2-1.5c-5.2-0.1-10.3-0.1-15.5-0.2c-2.2,0-4.4,0-6.6-0.2
		c-2.6-0.2-5.1-1.1-7.2-2.6c-1.6-1.2-2.9-2.8-4.1-4.6c-2.9-4.6-6-9.3-8.9-14c-0.7-1.2-1.7-2.3-2.8-3.2c-2.2-1.9-4.7-2.9-7.5-2.9
		c-2.3,0-4.3,0.7-6.3,1.9c-2,1.3-3.5,3-4.7,5.1c-1.5,2.5-3,5.1-4.5,7.6c-4.1,7-8.2,14-12.3,21c-1.7,2.9-2.4,6.1-1.6,9.5
		c1.2,5,5.4,8.8,10.6,9.1c1.5,0.1,3,0.1,4.5,0.1c3.9,0,7.9,0,11.8,0c1.6,0,3.2,0,4.8,0.2c2.5,0.2,4.8,1.1,6.9,2.6
		c1.7,1.2,3,2.8,4.1,4.6c3.6,5.7,7.3,11.5,10.9,17.3c0.6,0.9,1.2,1.7,1.9,2.5c3.7,3.8,9.3,5.1,14.2,3.1c2.9-1.2,5.1-3.2,6.6-5.9
		c5.6-9.6,11.2-19.2,16.9-28.8c1.3-2.1,2.3-5.5,1.7-9.7C121.8,66.1,119.1,62.4,114.9,59.9z M111.9,75.7c-0.2,0.4-0.5,0.8-0.7,1.2
		c-0.2,0.2-0.3,0.6-0.5,0.8c-3.2,5.5-6.4,11.1-9.7,16.5l-4.6,7.9c-0.1,0.2-0.4,0.7-0.4,0.7c-0.7,1.1-2,1.8-3.2,1.9
		c-0.1,0-0.1,0-0.2,0c-1.2,0-2.5-0.7-3.1-1.6c-0.1-0.1-0.4-0.5-0.5-0.7c-0.9-1.5-1.8-2.9-2.8-4.3c-2.3-3.6-4.7-7.4-6.9-11
		c-2.3-3.7-5.1-6.6-8.4-8.6c-2.9-1.7-6.1-2.9-9.5-3.4c-1.4-0.2-2.9-0.3-4.5-0.3c-1.2,0-2.4,0-3.5,0c-1.5,0-2.9,0-4.3,0H49
		c-1.2,0-2.4,0-3.5,0c-0.6,0-1.1,0-1.7,0h-0.2h-0.2H43c-1.4,0-2.6-0.7-3.3-1.9c-0.7-1.2-0.7-2.6,0-3.8c4.7-8.1,9.3-16,13.9-23.7
		c0.7-1.1,1.9-1.8,3.1-1.9c0.1,0,0.1,0,0.2,0c1.3,0,2.5,0.7,3.1,1.6c0.1,0.1,0.1,0.2,0.2,0.2c0.1,0.2,0.2,0.3,0.3,0.5
		c0.8,1.3,1.6,2.6,2.5,3.9c1.6,2.5,3.1,4.9,4.7,7.4c2,3.2,4.4,5.7,7.3,7.7c3,2,6.4,3.4,10.2,3.9c1.8,0.2,3.7,0.2,5.7,0.2h0.5
		c4.3,0,8.5,0.1,12.8,0.1h3.7c2.3,0,4.1,1.4,4.5,3.6C112.7,73.5,112.5,74.7,111.9,75.7z"/>
	<path id="XMLID_2_" class="st0" d="M84.6,43.8c1.6,2.5,3.9,3.8,7,3.8c2.3,0,13.5,0.1,14.5,0.1c1.2,0,2-0.7,2.4-1.9
		c0.2-0.7,0-1.2-0.3-1.8c-1.6-2.9-3.3-5.9-5.3-8.6c-0.8-1.1-1.8-2-2.9-2.7c-1.9-1.1-3.9-1.7-6.1-1.8c-1.2-0.2-9.8-0.2-13-0.2
		c-0.2,0-0.5,0-0.7,0c-0.8,0.1-1.6,0.6-1.8,1.4c-0.2,0.7-0.1,1.3,0.3,2C80.5,37.3,82.5,40.5,84.6,43.8z"/>
	<path id="XMLID_1_" class="st0" d="M62.6,99.9c-1.7-2.6-4.1-4-7.3-4c-2.1,0-10.6,0-12.8-0.1c-2.1,0-3.6,2.3-2.5,4.3
		c1.9,3,3.6,6.2,5.4,9.3c0.3,0.6,0.7,1.1,1.1,1.6c1.5,2,3.3,3.4,5.6,4.4c1.7,0.7,3.5,1,5.4,1c3.5,0,7.1,0,10.6,0c0.2,0,0.2,0,0.4,0
		c1-0.1,1.8-0.7,2.1-1.6c0.2-0.8,0.2-1.6-0.3-2.3C67.9,108.3,65.2,104.1,62.6,99.9z"/>
</g>
<g class="st1">
	<path d="M111.2,76.9c0.2-0.4,0.5-0.8,0.7-1.2c0.6-1,0.8-2.2,0.5-3.1c-0.4-2.2-2.2-3.6-4.5-3.6h-3.7c-4.3,0-8.5-0.1-12.8-0.1h-0.5
		c-2,0-3.9,0-5.7-0.2c-3.8-0.5-7.2-1.9-10.2-3.9c-2.9-2-5.3-4.5-7.3-7.7c-1.6-2.5-3.1-4.9-4.7-7.4c-0.9-1.3-1.7-2.6-2.5-3.9
		c-0.1-0.2-0.2-0.3-0.3-0.5c-0.1,0-0.1-0.1-0.2-0.2c-0.6-0.9-1.8-1.6-3.1-1.6c-0.1,0-0.1,0-0.2,0c-1.2,0.1-2.4,0.8-3.1,1.9
		c-0.3,0.6-0.7,1.1-1,1.7c0.5-0.3,1.2-0.6,1.8-0.6c0.1,0,0.1,0,0.2,0c1.3,0,2.5,0.7,3.1,1.6c0.1,0.1,0.1,0.2,0.2,0.2
		c0.1,0.2,0.2,0.3,0.3,0.5c0.8,1.3,1.6,2.6,2.5,3.9c1.6,2.5,3.1,4.9,4.7,7.4c2,3.2,4.4,5.7,7.3,7.7c3,2,6.4,3.4,10.2,3.9
		c1.8,0.2,3.7,0.2,5.7,0.2h0.5c4.3,0,8.5,0.1,12.8,0.1h3.7c2.3,0,4.1,1.4,4.5,3.6c0.3,1.5-2.6,7.6,0.6,2.1
		C110.9,77.5,111,77.1,111.2,76.9z"/>
	<path d="M133.5,70.3c-0.5-3.5-1.6-6.8-3.4-9.8c-0.8-1.5-11.9-20.5-16.7-28.3c-4.7-7.9-11.8-11.9-21.1-12.1
		C89.4,20,62,20.2,57.2,20.2c-3.7,0-7.2,0.9-10.6,2.7c-3.6,1.9-6.5,4.7-8.8,8.1c1.8-2,4-3.8,6.5-5.1c3.4-1.8,6.9-2.7,10.6-2.7
		c4.8,0,32.2-0.2,35.1-0.1c9.3,0.2,16.4,4.2,21.1,12.1C115.9,43,127,62,127.8,63.5c1.8,3,2.9,6.3,3.4,9.8c1,5.6-0.7,12.8-0.7,12.8
		C133.4,81.1,134.5,75.9,133.5,70.3z"/>
</g>
<path class="st1" d="M97.6,115.8L97.6,115.8c-5,2.1-10.8,0.8-14.8-3.2c-0.7-0.8-1.3-1.6-2-2.6c-2.7-4.3-5.4-8.6-8-12.8L70,92.7
	c-1.2-2-2.5-3.4-4-4.5c-2.1-1.5-4.3-2.3-6.7-2.5c-1.6-0.2-3.2-0.2-4.8-0.2H42.8c-1.5,0-3,0-4.5-0.1c-5.3-0.3-9.8-4.1-11.1-9.5
	c-0.2-0.7-0.3-1.3-0.3-2c-0.6,0.9-1.5,3-1,5.2c1.2,4.9,5.3,8.4,10.1,8.7c1.5,0.1,3,0.1,4.5,0.1h11.8c1.6,0,3.2,0,4.9,0.2
	c2.5,0.2,4.9,1.1,7.1,2.7c1.6,1.1,3,2.7,4.2,4.7l2.9,4.5c2.6,4.2,5.4,8.5,8,12.8c0.6,0.9,1.2,1.7,1.9,2.4c3.6,3.7,9,4.9,13.6,3
	C97.1,117.5,97.6,115.8,97.6,115.8z"/>
</svg>
