<?xml version="1.0" encoding="utf-8"?>
<!-- Generator: Adobe Illustrator 19.0.0, SVG Export Plug-In . SVG Version: 6.00 Build 0)  -->
<svg version="1.1" id="Layer_1" xmlns="http://www.w3.org/2000/svg" xmlns:xlink="http://www.w3.org/1999/xlink" x="0px" y="0px"
	 width="150px" height="150px" viewBox="-404 406 150 150" style="enable-background:new -404 406 150 150;" xml:space="preserve">
<style type="text/css">
	.st0{fill:#FFFFFF;}
	.st1{opacity:0.1;}
	.st2{opacity:0.25;fill:#0F0F0F;}
</style>
<g>
	<path class="st0" d="M-320.9,462.6l-0.1,0.1l-33.5,22.7c-3.1,1.9-7.3,1-9.2-2.1c-1-1.5-1.3-3.3-0.9-5.1c0.4-1.8,1.4-3.3,3-4.2
		c2-1.3,4.5-1.4,6.6-0.3c1.2,0.6,2.8,2,3.5,3c3.7-4.3,0.5-15.6-9.1-14.9c-2.5,0.4-4.9,1.2-7.1,2.6c-4.1,2.6-7,6.6-8,11.4
		c-1.1,4.7-0.2,9.6,2.4,13.7c5.4,8.5,16.6,11,25.1,5.6l0.1-0.1l9-6.1l10.7,11.7c0,0,7.7,8.8,19.3,7.5c0,0,0,0,0,0c0,0,0,0,0.1,0
		c1.8-0.2,18.1-2,23.1-22.2c0,0,3.6-15-8.8-23.8c-0.1-0.1-0.3-0.2-0.4-0.3c-0.2-0.2-0.8-0.4-0.9-0.5
		C-303.9,457.5-313.2,457.7-320.9,462.6z M-295.5,476.6L-295.5,476.6c1.9-1.2,3.1-2.9,3.7-4.7c-0.3,4.4-3.6,9.3-14.1,13.1
		c0,0,4.8,3.7,6.6,8.6c-0.4-0.6-0.8-1.2-1.4-1.7l0,0c-5.3,5.6-14.2,5.8-19.8,0.5l-2.5-2.4c-3-2.9-7.1-4.5-11.2-4.3l-0.4,0l19.8-13.4
		C-307.2,467.5-299.6,470.1-295.5,476.6z"/>
	<path class="st0" d="M-418.2,391.9v178.2H-240V391.9H-418.2z M-270.9,484.3c-1.2,19.5-49.8,60.9-67.9,59.8
		c-18.1-1.2-50-44.5-48.5-67.6c1.5-23.1,34.6-61.5,56.6-60.1C-308.7,417.8-269.6,464.8-270.9,484.3z"/>
</g>
<path id="XMLID_10_" class="st1" d="M-306.3,485.2c0,0,18.4,13.8-3.6,22.7c0,0,18.3-0.5,23.7-22c0,0,3.9-16.1-10.1-24.9
	C-296.3,461.1-281.6,476.3-306.3,485.2z"/>
<path id="XMLID_35_" class="st2" d="M-293.7,463.1c0,0,11.8,6.8,12,22.2c0.2,13.3-21,21.5-21,21.5s13.8-5.7,15.3-18.5
	C-286.6,481.1-286.5,471.8-293.7,463.1z"/>
<path class="st2" d="M-381.2,479.7c1.4-21.7,29-56.1,51.6-63.2c-0.3,0-0.7-0.1-1-0.1c-22-1.4-55.2,37.1-56.6,60.1
	c-1.2,18.1,18.3,48.9,35.5,61.7C-367.5,522.3-382.3,496.2-381.2,479.7z"/>
</svg>
