<?xml version="1.0" encoding="utf-8"?>
<!-- Generator: Adobe Illustrator 19.0.0, SVG Export Plug-In . SVG Version: 6.00 Build 0)  -->
<svg version="1.1" id="Layer_1" xmlns="http://www.w3.org/2000/svg" xmlns:xlink="http://www.w3.org/1999/xlink" x="0px" y="0px"
	 width="150px" height="150px" viewBox="-404 406 150 150" style="enable-background:new -404 406 150 150;" xml:space="preserve">
<style type="text/css">
	.st0{fill:#FFFFFF;}
	.st1{opacity:0.25;enable-background:new    ;}
	.st2{fill:#0F0F0F;}
	.st3{opacity:0.1;enable-background:new    ;}
	.st4{opacity:0.25;fill:#0F0F0F;enable-background:new    ;}
</style>
<g>
	<path class="st0" d="M-320.1,464.3l-0.1,0.1l-33.5,22.7c-3.1,1.9-7.3,1-9.2-2.1c-1-1.5-1.3-3.3-0.9-5.1c0.4-1.8,1.4-3.3,3-4.2
		c2-1.3,4.5-1.4,6.6-0.3c1.2,0.6,2.8,2,3.5,3c3.7-4.3,0.5-15.6-9.1-14.9c-2.5,0.4-4.9,1.2-7.1,2.6c-4.1,2.6-7,6.6-8,11.4
		c-1.1,4.7-0.2,9.6,2.4,13.7c5.4,8.5,16.6,11,25.1,5.6l0.1-0.1l9-6.1l10.7,11.7c0,0,7.7,8.8,19.3,7.5l0,0c0,0,0,0,0.1,0
		c1.8-0.2,18.1-2,23.1-22.2c0,0,3.6-15-8.8-23.8c-0.1-0.1-0.3-0.2-0.4-0.3c-0.2-0.2-0.8-0.4-0.9-0.5
		C-303.1,459.2-312.4,459.4-320.1,464.3z M-294.7,478.3L-294.7,478.3c1.9-1.2,3.1-2.9,3.7-4.7c-0.3,4.4-3.6,9.3-14.1,13.1
		c0,0,4.8,3.7,6.6,8.6c-0.4-0.6-0.8-1.2-1.4-1.7l0,0c-5.3,5.6-14.2,5.8-19.8,0.5l-2.5-2.4c-3-2.9-7.1-4.5-11.2-4.3h-0.4L-314,474
		C-306.4,469.2-298.8,471.8-294.7,478.3z"/>
	<path class="st0" d="M-417.4,393.6v178.2h178.2V393.6H-417.4z M-270.1,486c-1.2,19.5-49.8,60.9-67.9,59.8
		c-18.1-1.2-50-44.5-48.5-67.6s34.6-61.5,56.6-60.1C-307.9,419.5-268.8,466.5-270.1,486z"/>
</g>
<g class="st1">
	<path class="st2" d="M-294.3,477.8c0.4,0.4,0.8,0.8,1.1,1.2c1.5-1.9,2.1-3.8,2.3-5.7C-291.5,475-292.6,476.6-294.3,477.8z"/>
	<path class="st2" d="M-301.7,489.6c-0.1-0.1-0.2-0.3-0.4-0.4c0,0-0.1,0-0.1,0C-302.2,489.2-302,489.3-301.7,489.6z"/>
	<path class="st2" d="M-295.6,476.7c-4.3-5.5-11.3-7.4-18.4-3l-19.8,13.4h0.4c1.8-0.1,3.6,0.2,5.4,0.8l16.8-11.4
		C-305.4,472.9-299.8,473.4-295.6,476.7z"/>
	<path class="st2" d="M-350.6,478.1c-0.7-1-2.3-2.4-3.5-3c-2.1-1.1-4.6-1-6.6,0.3c-1.6,0.9-2.6,2.4-3,4.2c-0.4,1.8-0.1,3.6,0.9,5.1
		c0.6,1,1.5,1.8,2.5,2.3c-0.8-1.4-1-3-0.6-4.6c0.4-1.8,1.4-3.3,3-4.2c2-1.3,4.5-1.4,6.6-0.3c1.2,0.6,2.8,2,3.5,3
		c2.8-3.2,1.7-10.4-3.1-13.5C-348.6,470.9-348.5,475.6-350.6,478.1z"/>
	<path class="st2" d="M-338.2,490.3l-9,6.1l-0.1,0.1c-6.8,4.3-15.2,3.6-21.1-1.2c5.7,7.2,16,9,23.9,4l0.1-0.1l8.9-6L-338.2,490.3z"
		/>
</g>
<path id="XMLID_10_" class="st3" d="M-305.5,486.9c0,0,18.4,13.8-3.6,22.7c0,0,18.3-0.5,23.7-22c0,0,3.9-16.1-10.1-24.9
	C-295.5,462.8-280.8,478-305.5,486.9z"/>
<path id="XMLID_35_" class="st4" d="M-292.9,464.8c0,0,11.8,6.8,12,22.2c0.2,13.3-21,21.5-21,21.5s13.8-5.7,15.3-18.5
	C-285.8,482.8-285.7,473.5-292.9,464.8z"/>
<path class="st4" d="M-380.4,481.4c1.4-21.7,29-56.1,51.6-63.2c-0.3,0-0.7-0.1-1-0.1c-22-1.4-55.2,37.1-56.6,60.1
	c-1.2,18.1,18.3,48.9,35.5,61.7C-366.7,524-381.5,497.9-380.4,481.4z"/>
</svg>
