<?xml version="1.0" encoding="utf-8"?>
<!-- Generator: Adobe Illustrator 19.0.0, SVG Export Plug-In . SVG Version: 6.00 Build 0)  -->
<svg version="1.1" id="Layer_1" xmlns="http://www.w3.org/2000/svg" xmlns:xlink="http://www.w3.org/1999/xlink" x="0px" y="0px"
	 width="960px" height="560px" viewBox="0 201 960 560" style="enable-background:new 0 201 960 560;" xml:space="preserve">
<style type="text/css">
	.st0{fill:#212121;}
	.st1{opacity:5.000000e-002;}
	.st2{opacity:0.5;fill:#FFFFFF;}
	.st3{fill:#FFFFFF;}
	.st4{opacity:0.1;fill:#0F0F0F;}
</style>
<path d="M637.8,476.6c-2-9.3-9.5-15.3-19.1-15.4l-15.6-0.1c-18-0.1-36-0.2-54-0.3h-2.2c-8.5,0-16.5-0.1-24.1-1.2
	c-16.2-2.4-30.4-7.8-43.3-16.5c-12.3-8.4-22.5-19-30.9-32.5c-6.5-10.3-13.1-20.9-19.5-31.1c-3.4-5.5-6.9-11-10.3-16.5
	c-0.5-0.7-0.9-1.4-1.3-2c-0.2-0.2-0.3-0.5-0.5-0.8c-3-4.2-7.9-6.9-13.3-6.9c-0.2,0-0.3,0-0.5,0c-5.5,0.2-10.5,3.1-13.3,7.9
	c-19.2,32.5-39,66-58.7,100.4c-2.8,5-2.8,11,0,16c2.9,4.9,8.1,8,13.8,8h1.3h0.9h1c2.4,0,4.8,0,7.2,0c4.9,0,9.9-0.1,14.9-0.1h0.7
	c6.2,0,12.3,0,18.5,0c5,0,9.9,0,14.9,0c6.9,0,13,0.4,18.9,1.3c14.5,2.2,28,7.1,40,14.5c14,8.7,25.6,20.6,35.4,36.3
	c9.7,15.5,19.6,31.3,29.2,46.5c3.9,6.1,7.7,12.2,11.6,18.4c0.5,0.8,1,1.5,1.4,2.1c0.2,0.2,0.4,0.5,0.6,0.8c3,4.4,7.9,7,13.2,7
	c0.2,0,0.3,0,0.5,0c5.5-0.2,10.4-3.1,13.3-7.8l0.6-1.1c0.5-0.8,0.9-1.5,1.3-2.1l19.4-33.2c13.6-23.2,27.2-46.5,40.7-69.7
	c0.7-1.2,1.4-2.4,2.1-3.6c1-1.6,2-3.3,3-5C638,485.7,638.8,481,637.8,476.6z"/>
<g>
	<path id="XMLID_5_" class="st0" d="M685.8,495.2c-4.4,69-176.2,215.4-240.1,211.3S269.1,549.2,274.3,467.7
		c5.2-81.5,122.5-217.5,200.2-212.5C552.2,260.1,690.2,426.3,685.8,495.2z"/>
	<path id="XMLID_4_" class="st1" d="M476,266.4c-81.7-4.3-183.8,123.5-188.7,200.3C283,534.4,365,654.6,425.7,684.8
		C386,460.4,476.3,266.4,476,266.4z"/>
	<path id="XMLID_3_" class="st2" d="M565.7,498.5c0,0,63.8,49.3-11.8,79.9c0,0,66.3-11.2,80.8-77.3c0,0,13.4-55.4-34.7-85.5
		C600,415.7,650.4,467.9,565.7,498.5z"/>
	<path id="XMLID_9_" class="st3" d="M598.9,468c-14.6-23-41.6-32.3-68.2-15.5l-118.4,80.1l-0.5,0.3c-30,19-69.8,10.1-88.8-19.9
		c-9.2-14.5-12.2-31.7-8.4-48.5c3.8-16.8,13.8-31,28.3-40.2c7.8-4.9,16.3-8.1,25.1-9.4c34-2.2,45.1,37.5,32.1,52.8
		c-2.2-3.4-7.9-8.3-12.2-10.5c-7.6-3.7-16.3-3.3-23.3,1.2c-5.4,3.4-9.1,8.7-10.5,14.9c-1.4,6.2-0.3,12.6,3.1,18
		c7,11,21.6,14.4,32.7,7.5l118.4-80.1l0.5-0.3c27.3-17.3,60.3-18,87.5-4.9C618.2,424.1,619.5,455,598.9,468L598.9,468z"/>
	<path id="XMLID_6_" class="st3" d="M510.7,523.8c19.7,18.7,51,18,69.9-1.6l0,0c16.3,15.6,11.2,43.1-9.7,51.5
		c-52,20.7-88.8-21.3-88.8-21.3l-47.4-51.6l27.4-0.9c14.8-0.5,29.1,5,39.7,15.3L510.7,523.8z"/>
	<path id="XMLID_35_" class="st4" d="M604.4,418.7c0,0,41.6,24.2,42.6,78.4c0.8,47.1-74.4,76.1-74.4,76.1s48.9-20,54-65.4
		C629.6,482.3,629.8,449.6,604.4,418.7z"/>
</g>
</svg>
