<?xml version="1.0" encoding="utf-8"?>
<!-- Generator: Adobe Illustrator 19.0.0, SVG Export Plug-In . SVG Version: 6.00 Build 0)  -->
<svg version="1.1" id="Layer_1" xmlns="http://www.w3.org/2000/svg" xmlns:xlink="http://www.w3.org/1999/xlink" x="0px" y="0px"
	 width="960px" height="560px" viewBox="0 201 960 560" style="enable-background:new 0 201 960 560;" xml:space="preserve">
<style type="text/css">
	.st0{fill:#212121;}
	.st1{opacity:5.000000e-002;enable-background:new    ;}
	.st2{opacity:0.5;fill:#FFFFFF;enable-background:new    ;}
	.st3{fill:#FFFFFF;}
	.st4{opacity:0.1;fill:#0F0F0F;enable-background:new    ;}
</style>
<g>
	<path id="XMLID_5_" class="st0" d="M685.8,495.4c-4.4,69-176.2,215.4-240.1,211.3S269.1,549.4,274.3,467.9
		c5.2-81.5,122.5-217.5,200.2-212.5C552.2,260.3,690.2,426.5,685.8,495.4z"/>
	<path id="XMLID_4_" class="st1" d="M476,266.6c-81.7-4.3-183.8,123.5-188.7,200.3C283,534.6,365,654.8,425.7,685
		C386,460.6,476.3,266.6,476,266.6z"/>
	<path id="XMLID_3_" class="st2" d="M565.7,498.7c0,0,63.8,49.3-11.8,79.9c0,0,66.3-11.2,80.8-77.3c0,0,13.4-55.4-34.7-85.5
		C600,415.9,650.4,468.1,565.7,498.7z"/>
	<path id="XMLID_9_" class="st3" d="M598.9,468.2c-14.6-23-41.6-32.3-68.2-15.5l-118.4,80.1l-0.5,0.3c-30,19-69.8,10.1-88.8-19.9
		c-9.2-14.5-12.2-31.7-8.4-48.5c3.8-16.8,13.8-31,28.3-40.2c7.8-4.9,16.3-8.1,25.1-9.4c34-2.2,45.1,37.5,32.1,52.8
		c-2.2-3.4-7.9-8.3-12.2-10.5c-7.6-3.7-16.3-3.3-23.3,1.2c-5.4,3.4-9.1,8.7-10.5,14.9c-1.4,6.2-0.3,12.6,3.1,18
		c7,11,21.6,14.4,32.7,7.5l118.4-80.1l0.5-0.3c27.3-17.3,60.3-18,87.5-4.9C618.2,424.3,619.5,455.2,598.9,468.2L598.9,468.2z"/>
	<path id="XMLID_6_" class="st3" d="M510.7,524c19.7,18.7,51,18,69.9-1.6l0,0c16.3,15.6,11.2,43.1-9.7,51.5
		c-52,20.7-88.8-21.3-88.8-21.3L434.7,501l27.4-0.9c14.8-0.5,29.1,5,39.7,15.3L510.7,524z"/>
	<path id="XMLID_35_" class="st4" d="M604.4,418.9c0,0,41.6,24.2,42.6,78.4c0.8,47.1-74.4,76.1-74.4,76.1s48.9-20,54-65.4
		C629.6,482.5,629.8,449.8,604.4,418.9z"/>
</g>
</svg>
